Coordinates
version=1
nRows=13
nColumns=36
inDegrees=yes

Units are S.I. units (second, meters, Newtons, ...)
If the header above contains a line with 'inDegrees', this indicates whether rotational values are in degrees (yes) or radians (no).

endheader
time	pelvis_tilt	pelvis_list	pelvis_rotation	pelvis_tx	pelvis_ty	pelvis_tz	hip_flexion_r	hip_adduction_r	hip_rotation_r	knee_angle_r	knee_angle_r_beta	ankle_angle_r	subtalar_angle_r	mtp_angle_r	hip_flexion_l	hip_adduction_l	hip_rotation_l	knee_angle_l	knee_angle_l_beta	ankle_angle_l	subtalar_angle_l	mtp_angle_l	lumbar_extension	lumbar_bending	lumbar_rotation	arm_flex_r	arm_add_r	arm_rot_r	elbow_flex_r	pro_sup_r	arm_flex_l	arm_add_l	arm_rot_l	elbow_flex_l	pro_sup_l
      0.00000000	      3.78055973	     -1.55657203	      0.99806692	     -0.88814685	      1.24654841	     -0.08546124	    -10.38083640	      1.86364561	     -0.58793293	      2.84042363	      0.04957474	      7.43159601	    -14.05593917	     -6.62912946	    -10.01512693	     -3.77365449	      2.32245809	      1.25474767	      0.02189948	     13.17917633	     -2.31878348	     -6.62912946	    -10.22847730	      3.69746317	     -0.09867904	      4.72302505	     -6.66388176	     17.15095644	     23.07681184	     72.57956298	      2.55827021	     -5.76535401	     15.59442581	     24.64538726	     68.45937456
      0.00416670	      3.77801327	     -1.50916206	      1.19999726	     -0.88742754	      1.24605476	     -0.08621378	    -10.60861775	      2.04263101	     -0.24661035	      2.46991993	      0.04310823	     10.21918520	    -12.21807048	     -7.12523669	     -9.69379579	     -3.26761458	      4.79119504	      1.38568115	      0.02418470	     12.10052166	     -3.43738366	     -7.12523669	    -10.01299906	      4.02977911	     -0.51850395	      4.31045274	     -5.57099495	      9.31292704	     23.74150051	     77.89273993	      2.08595165	     -4.58697642	      9.51895467	     25.00703367	     72.63633347
      0.00833330	      3.23374778	     -1.05220770	      0.98538446	     -0.88846872	      1.24436916	     -0.08508569	    -10.30195891	      1.50627647	     -0.59875625	      1.81675083	      0.03170828	     10.49435022	    -11.85194906	     -7.25281326	     -9.12251737	     -2.78739239	      5.09833188	      1.44194412	      0.02516667	     12.04097221	     -3.44684125	     -7.25281326	     -9.42337706	      3.28634761	     -0.49264443	      4.23622206	     -4.83881944	      7.58937845	     24.04900689	     73.85485463	      2.16849576	     -4.73157627	      8.66165342	     25.10401176	     69.71756877
      0.01250000	      4.57602808	     -0.86834199	      1.03985619	     -0.88946991	      1.24642890	     -0.08501891	    -11.95091385	      1.23543186	     -1.12887612	      1.39093457	      0.02427639	     10.94888260	    -10.67273608	     -7.30452090	    -10.85029456	     -2.58861224	      5.98786157	      1.01931394	      0.01779038	     11.66800269	     -4.29506965	     -7.30452090	    -11.34158476	      3.01359467	     -0.16648523	      4.34678326	     -4.59717058	      6.12978335	     24.95007811	     73.12549549	      2.64088739	     -5.07715237	      9.01614322	     25.75735036	     69.61333075
      0.01666670	      5.02410236	     -0.89153042	      0.77120932	     -0.89103062	      1.24967048	     -0.08463939	    -12.43540554	      1.18158005	     -1.06421176	      1.25467434	      0.02189820	     10.98626826	    -10.38801236	     -7.40806568	    -11.45297246	     -2.53426182	      6.37317953	      0.79542150	      0.01388272	     11.55292574	     -4.83179210	     -7.40806568	    -12.35403556	      3.01203498	      0.18889575	      4.48266905	     -4.46654858	      4.54369905	     25.51482121	     77.82799472	      3.36114957	     -5.20839353	      9.96092065	     25.77703089	     74.39475616
      0.02083330	      5.58090975	     -0.96393457	      0.49617779	     -0.89072362	      1.24722576	     -0.08403809	    -12.90307247	      1.19119256	     -0.96969315	      1.42349876	      0.02484474	     11.04894940	    -10.26517543	     -7.42131910	    -12.14264283	     -2.55671979	      6.62367796	      0.71193160	      0.01242555	     11.54576646	     -5.44143208	     -7.42131910	    -13.33364693	      3.15836527	      0.52249328	      4.96407186	     -4.82338240	      6.33344265	     25.67165544	     76.99880749	      3.72067495	     -5.22855146	     10.87222698	     26.23069768	     74.11571077
      0.02500000	      5.85839922	     -0.95696396	      0.47851375	     -0.89168954	      1.24745331	     -0.08361909	    -13.10736205	      1.17534528	     -0.98906647	      1.58935185	      0.02773942	     11.03548938	    -10.34635782	     -7.48468402	    -12.46569068	     -2.54487948	      6.94284723	      0.68768386	      0.01200235	     11.39229322	     -5.88661343	     -7.48468402	    -13.85068576	      3.25733625	      0.74523890	      5.24072776	     -5.06625213	      7.74049019	     25.77136368	     76.80937726	      4.00823578	     -5.16487561	     11.15852448	     26.66834995	     76.17778829
      0.02916670	      5.97948585	     -0.99633709	      0.37281996	     -0.89118907	      1.24774322	     -0.08360435	    -13.11039369	      1.17871838	     -1.06827435	      1.74283862	      0.03041827	     11.19537479	    -10.29861131	     -7.49364377	    -12.60983527	     -2.57534552	      7.15892547	      0.67749482	      0.01182452	     11.35321844	     -6.35031105	     -7.49364377	    -14.01979404	      3.37615112	      0.77327931	      5.43296964	     -5.45938474	     10.10892767	     25.51946669	     73.86477325	      4.13000005	     -5.26412312	     12.68820517	     26.83333047	     73.60627483
      0.03333330	      6.00095132	     -0.98187623	      0.30329028	     -0.89202747	      1.24775699	     -0.08320681	    -13.17248277	      1.16284593	     -0.98212950	      1.58741874	      0.02770568	     11.06591624	    -10.53006176	     -7.49736091	    -12.60316568	     -2.55607284	      7.38203813	      0.68686103	      0.01198799	     11.29159732	     -6.79434769	     -7.49736091	    -14.11687314	      3.43229334	      0.66443935	      5.61136320	     -5.70650231	     11.74516772	     25.23061293	     72.28953011	      4.46518585	     -5.50541250	     13.81332442	     26.84888834	     72.38192017
      0.03750000	      6.04714589	     -1.00984131	      0.20805787	     -0.88534273	      1.24791077	     -0.07893456	    -13.31515876	      1.26447404	     -0.97032526	      1.56919490	      0.02738762	     11.13706635	    -10.49057197	     -7.49736834	    -12.79797870	     -2.67543892	      7.35575743	      0.68975799	      0.01203855	     11.33800658	     -6.89593969	     -7.49736834	    -14.07242828	      3.38574992	      0.60372992	      5.34243622	     -5.65115448	     11.74953152	     25.16799513	     72.33798393	      4.38209412	     -5.75630080	     13.75959432	     26.80666429	     72.43039865
      0.04166670	      6.22107095	     -1.05917504	      0.18636227	     -0.88635492	      1.24775149	     -0.07875825	    -13.66403603	      1.40548199	     -1.18651395	      1.43324382	      0.02501482	     11.32116839	    -10.09892550	     -7.49849296	    -13.16342617	     -2.81563023	      7.53696580	      0.61208385	      0.01068288	     11.31799237	     -7.18975739	     -7.49849296	    -14.20817980	      3.38625955	      0.34511017	      5.27350220	     -5.74147530	     12.88216047	     25.23602851	     72.00317108	      4.09141376	     -6.20880980	     14.33853863	     27.44695434	     72.17080971
      0.04583330	      6.18597568	     -1.11803921	      0.07953201	     -0.89160367	      1.24811162	     -0.07427830	    -13.58996562	      1.61605950	     -1.20152822	      1.38578112	      0.02418644	     11.40414235	    -10.13060432	     -7.49849503	    -13.14077221	     -3.01127312	      7.51988671	      0.60134682	      0.01049548	     11.30651743	     -7.20173331	     -7.49849503	    -14.23603347	      3.27074543	      0.40840630	      5.26260304	     -5.64444390	     12.88865800	     25.24179184	     72.03518720	      4.10703752	     -6.51887356	     14.26644869	     27.36606729	     72.19395214
      0.05000000	      6.21317528	     -1.14871806	      0.08167344	     -0.89258775	      1.24794616	     -0.08307344	    -13.54243213	      1.62241215	     -1.39716701	      1.41106573	      0.02462774	     11.46856597	     -9.95477410	     -7.49876073	    -13.13378187	     -3.05222367	      7.22641026	      0.55199555	      0.00963414	     11.47041993	     -6.68418635	     -7.49876073	    -14.41431040	      3.38776193	      0.20487237	      5.37885886	     -5.82437590	     13.02637492	     25.07271777	     74.22270736	      4.18074780	     -6.48289936	     13.52985029	     26.99963836	     74.43088094
